<svg width="786" height="407" viewBox="0 0 786 407" fill="none" xmlns="http://www.w3.org/2000/svg">
<path d="M142.5 260.153C170.9 166.153 177 147.319 176.5 149.653C180.667 141.653 183.1 128.053 159.5 137.653C130 149.653 83.5 187.153 81 189.153C78.5 191.153 35.5 251.653 51.5 260.153C67.5 268.653 118.5 275.153 120 267.653C121.2 261.653 135.5 260.153 142.5 260.153ZM142.5 260.153C136.872 274.034 131.294 286.811 126.085 298.153M142.5 260.153C147.068 256.794 153.476 251.936 159.5 247.096M126.085 298.153C114.633 323.089 104.968 341.092 100.5 348.653C77.1667 370.319 29.5 410.753 25.5 399.153C15.9 399.153 15.8333 385.819 17 379.153C44.6 346.753 67.5 328.986 75.5 324.153C87 315.486 109.8 298.153 109 298.153C108.2 298.153 120.057 298.153 126.085 298.153ZM159.5 247.096C168.422 239.928 176.5 232.802 176.5 230.653C186.43 215.095 184.719 229.966 181.567 244.153M159.5 247.096C159.5 260.251 172.833 256.282 179.5 252.653C180.19 250.037 180.91 247.11 181.567 244.153M181.567 244.153C187.113 253.753 181.567 260.153 196 254.653M196 254.653L215 230.653M196 254.653C209.2 253.053 222.167 244.319 227 240.153C233.167 243.319 245.6 247.753 246 240.153C246.4 232.553 248.5 232.319 249.5 233.153C249.5 238.153 249.5 247.353 249.5 244.153C249.5 240.953 267.167 227.819 276 221.653M276 221.653L295.5 169.653M276 221.653C275.655 223.774 275.269 226.47 274.969 229.153M309 242.653C292.5 254.653 282.5 247.096 276 240.153C274.029 241.842 274.255 235.535 274.969 229.153M309 242.653C321.53 232.153 291.812 229.653 274.969 229.153M309 242.653C361.5 223.153 380 175.653 374.5 185.153L393.5 133.153M393.5 133.153C390.15 152.433 385.896 176.426 381.299 201.653M393.5 133.153C405.667 126.319 430.7 116.753 433.5 133.153C437 153.653 418.5 172.153 381.299 201.653M348.41 362.153C347.156 366.116 346.165 368.248 345.5 368.153L348.41 362.153ZM348.41 362.153C349.664 358.187 351.18 352.388 352.896 345.153M352.896 345.153C373 350.153 415.5 352.653 443 324.153C470.5 295.653 492 269.153 488.5 230.653M352.896 345.153C360.364 313.648 371.595 254.903 381.299 201.653M488.5 230.653C485.7 199.853 415.866 198.486 381.299 201.653M488.5 230.653C500.5 217.853 505.5 211.986 506.5 210.653M488.5 230.653L506.5 210.653M506.5 210.653C500.5 225.453 501.667 229.153 503 229.153L516.5 213.153C515.667 217.153 514.5 225.953 516.5 229.153C519 233.153 535.5 240.153 542 226.653C547.2 215.853 548.167 215.486 548 216.653C549.667 223.486 553.5 236.353 555.5 233.153C558 229.153 565.5 221.653 562 219.153C559.2 217.153 565.833 219.986 569.5 221.653C570.211 220.139 570.993 218.454 571.819 216.653M586 174.153C585 174.819 583.6 176.553 586 178.153C588.137 179.578 578.537 201.993 571.819 216.653M571.819 216.653C571.819 224.653 581.5 231.653 615.5 216.653C626.7 209.053 629.833 216.819 630 221.653C633.833 226.319 657 235.153 719 233.153C781 231.153 784.167 169.319 778 138.653C769 113.153 718 58.2527 586 42.6527C421 23.1527 66.5 -5.84725 2 9.15275" stroke="black" stroke-width="10"/>
</svg>
